<svg width="21" height="24" viewBox="0 0 21 24" fill="none" xmlns="http://www.w3.org/2000/svg">
<g clip-path="url(#clip0_20_1233)">
<path d="M20.0353 18.483C19.6849 19.2938 19.2701 20.0402 18.7895 20.7264C18.1344 21.6619 17.598 22.3095 17.1847 22.6691C16.5439 23.2593 15.8573 23.5616 15.1221 23.5788C14.5943 23.5788 13.9578 23.4284 13.2169 23.1232C12.4735 22.8195 11.7904 22.6691 11.1658 22.6691C10.5107 22.6691 9.80808 22.8195 9.05657 23.1232C8.30392 23.4284 7.6976 23.5874 7.23402 23.6031C6.529 23.6332 5.82627 23.3223 5.12483 22.6691C4.67713 22.278 4.11715 21.6075 3.44632 20.6577C2.72657 19.6434 2.13483 18.4672 1.67126 17.1263C1.17478 15.6779 0.925903 14.2754 0.925903 12.9175C0.925903 11.3621 1.26146 10.0206 1.93358 8.89647C2.46181 7.99349 3.16454 7.2812 4.04406 6.75829C4.92358 6.23539 5.87391 5.96892 6.89732 5.95187C7.4573 5.95187 8.19164 6.12536 9.1042 6.46633C10.0142 6.80843 10.5985 6.98192 10.8547 6.98192C11.0462 6.98192 11.6953 6.77906 12.7956 6.37464C13.8362 5.99958 14.7145 5.84428 15.4339 5.90546C17.3835 6.06304 18.8482 6.83279 19.8222 8.21956C18.0786 9.27769 17.2161 10.7597 17.2333 12.661C17.249 14.1419 17.7854 15.3742 18.8396 16.3527C19.3173 16.8068 19.8508 17.1578 20.4444 17.4071C20.3157 17.781 20.1798 18.1391 20.0353 18.483ZM15.5641 0.860356C15.5641 2.02107 15.1407 3.10483 14.2968 4.10795C13.2784 5.30046 12.0466 5.98955 10.7108 5.88082C10.6937 5.74156 10.6839 5.59501 10.6839 5.441C10.6839 4.32671 11.1682 3.1342 12.0283 2.15916C12.4577 1.66549 13.0038 1.255 13.666 0.927545C14.3268 0.604977 14.9519 0.42659 15.5398 0.396042C15.5569 0.551212 15.5641 0.706392 15.5641 0.860341V0.860356Z" fill="black"/>
</g>
<defs>
<clipPath id="clip0_20_1233">
<rect width="19.5185" height="23.2091" fill="white" transform="translate(0.925903 0.395508)"/>
</clipPath>
</defs>
</svg>
