<svg width="16" height="31" viewBox="0 0 16 31" fill="none" xmlns="http://www.w3.org/2000/svg">
<path d="M14.1931 9.1591V13.7046H0.727228V9.1591H14.1931ZM3.80961 30.9773V7.58239C3.80961 6.00095 4.11738 4.6894 4.73291 3.64773C5.35791 2.60607 6.21018 1.82482 7.28973 1.30398C8.36927 0.783149 9.5956 0.522732 10.9687 0.522732C11.8967 0.522732 12.7443 0.593756 13.5113 0.735802C14.2878 0.877847 14.8655 1.00569 15.2443 1.11932L14.1647 5.66478C13.928 5.58902 13.6344 5.518 13.284 5.45171C12.9431 5.38542 12.5928 5.35228 12.2329 5.35228C11.3428 5.35228 10.7225 5.56061 10.3721 5.97728C10.0217 6.38448 9.84655 6.95739 9.84655 7.69603V30.9773H3.80961Z" fill="#3B5999"/>
</svg>
