<svg width="24" height="24" viewBox="0 0 24 24" fill="none" xmlns="http://www.w3.org/2000/svg">
<g clip-path="url(#clip0_20_1226)">
<path d="M5.5467 14.8046L4.73977 17.817L1.79047 17.8794C0.909067 16.2446 0.409119 14.3741 0.409119 12.3865C0.409119 10.4644 0.876558 8.65188 1.70513 7.05591H1.70576L4.33146 7.53729L5.48168 10.1472C5.24094 10.8491 5.10973 11.6025 5.10973 12.3865C5.10982 13.2373 5.26394 14.0525 5.5467 14.8046Z" fill="#FBBB00"/>
<path d="M23.3883 10.2208C23.5214 10.922 23.5908 11.6461 23.5908 12.3861C23.5908 13.216 23.5036 14.0254 23.3374 14.8062C22.7731 17.4632 21.2988 19.7833 19.2564 21.4251L19.2558 21.4245L15.9485 21.2558L15.4805 18.3338C16.8357 17.539 17.8948 16.2952 18.4527 14.8062H12.2548V10.2208H18.5431H23.3883Z" fill="#518EF8"/>
<path d="M19.2557 21.4248L19.2564 21.4255C17.27 23.0221 14.7467 23.9774 12 23.9774C7.58586 23.9774 3.74814 21.5102 1.79041 17.8794L5.54663 14.8047C6.52547 17.417 9.04555 19.2767 12 19.2767C13.2698 19.2767 14.4595 18.9334 15.4804 18.3341L19.2557 21.4248Z" fill="#28B446"/>
<path d="M19.3985 3.4639L15.6435 6.53803C14.587 5.87762 13.3381 5.49611 12 5.49611C8.97875 5.49611 6.41155 7.44108 5.48174 10.1471L1.70577 7.05581H1.70514C3.63421 3.33654 7.52033 0.795456 12 0.795456C14.8124 0.795456 17.3911 1.79725 19.3985 3.4639Z" fill="#F14336"/>
</g>
<defs>
<clipPath id="clip0_20_1226">
<rect width="23.1818" height="23.1818" fill="white" transform="translate(0.409119 0.795456)"/>
</clipPath>
</defs>
</svg>
